Coordinates
version=1
nRows=13
nColumns=22
inDegrees=yes

Units are S.I. units (second, meters, Newtons, ...)
If the header above contains a line with 'inDegrees', this indicates whether rotational values are in degrees (yes) or radians (no).

endheader
time	pelvis_tilt	pelvis_list	pelvis_rotation	pelvis_tx	pelvis_ty	pelvis_tz	hip_flexion_r	hip_adduction_r	hip_rotation_r	knee_angle_r	ankle_angle_r	subtalar_angle_r	hip_flexion_l	hip_adduction_l	hip_rotation_l	knee_angle_l	ankle_angle_l	subtalar_angle_l	lumbar_extension	lumbar_bending	lumbar_rotation
      1.11000000	     -0.95466871	     -4.95598767	     12.51557136	      0.64728298	      0.96735021	     -0.37288988	     19.82864036	     -4.66548095	    -14.43435971	    -42.90093926	      8.61948262	      4.33822461	      5.89330279	     -0.50473352	     10.15278164	    -15.32585281	     12.28294942	     -0.50864849	     -3.41772316	      3.55498477	    -12.34992220
      1.12000000	     -1.08056558	     -4.85766092	     12.28012816	      0.64185337	      0.96737326	     -0.37233802	     19.15702887	     -4.66477262	    -14.39590986	    -43.52237757	      8.84533952	      4.17491901	      6.20139545	     -0.35221201	     10.03313351	    -15.10569242	     11.95521329	     -0.59446155	     -3.25407472	      3.38051127	    -12.04480123
      1.13000000	     -1.21170724	     -4.75190856	     12.02146324	      0.63643834	      0.96735237	     -0.37170039	     18.47382304	     -4.64665053	    -14.29680334	    -44.11519301	      9.04319200	      4.06362391	      6.52439766	     -0.19852084	      9.88671590	    -14.90620505	     11.62685840	     -0.68309173	     -3.08272528	      3.19819610	    -11.71556509
      1.14000000	     -1.34508797	     -4.63942141	     11.74300127	      0.63102368	      0.96729535	     -0.37099103	     17.78230302	     -4.61452053	    -14.14131498	    -44.68663808	      9.21628070	      4.00495648	      6.85728140	     -0.04540897	      9.71070478	    -14.72054752	     11.29057929	     -0.76752245	     -2.90761940	      3.01199376	    -11.36702122
      1.15000000	     -1.47657226	     -4.51918731	     11.45159469	      0.62560420	      0.96721507	     -0.37022406	     17.07628860	     -4.57639992	    -13.94723364	    -45.23031741	      9.34353692	      3.99863827	      7.19830447	      0.10791201	      9.51457731	    -14.55190058	     10.96554581	     -0.85675337	     -2.73121920	      2.82309175	    -10.99280244
      1.16000000	     -1.60970003	     -4.39512600	     11.14390688	      0.62018421	      0.96711593	     -0.36940121	     16.35905168	     -4.52995262	    -13.71868841	    -45.74128145	      9.43932074	      4.03494667	      7.54969515	      0.25782111	      9.29581837	    -14.39691752	     10.63208470	     -0.92890802	     -2.54949561	      2.63497659	    -10.60791507
      1.17000000	     -1.73535421	     -4.26911630	     10.82406072	      0.61472406	      0.96699045	     -0.36852152	     15.64032711	     -4.48440080	    -13.47581728	    -46.24686741	      9.49229964	      4.11759397	      7.90656557	      0.40029250	      9.06465538	    -14.25955457	     10.31081830	     -0.99144722	     -2.37664381	      2.45359033	    -10.20687720
      1.18000000	     -1.86802836	     -4.15002510	     10.50539183	      0.60925933	      0.96685307	     -0.36760306	     14.91031174	     -4.42677014	    -13.22357529	    -46.70047779	      9.49748851	      4.21208564	      8.28385905	      0.52918773	      8.82252127	    -14.13594256	      9.97922017	     -1.01389698	     -2.18639503	      2.28333775	     -9.82228585
      1.19000000	     -1.99254521	     -4.02241891	     10.17391833	      0.60373554	      0.96668194	     -0.36663925	     14.18589428	     -4.38169437	    -12.95780772	    -47.15524236	      9.47021695	      4.36133496	      8.66800966	      0.66002561	      8.58829271	    -14.03776106	      9.69973488	     -1.01842268	     -2.01006202	      2.11346437	     -9.39449709
      1.20000000	     -2.12602155	     -3.91456421	      9.85163665	      0.59819822	      0.96649899	     -0.36563520	     13.45864051	     -4.31544480	    -12.69864162	    -47.55431123	      9.38838074	      4.50005025	      9.07966872	      0.76461157	      8.35651527	    -13.95645903	      9.39977081	     -0.97991251	     -1.81202021	      1.96848685	     -9.00706113
      1.21000000	     -2.26178355	     -3.80959134	      9.53088616	      0.59261062	      0.96628330	     -0.36455897	     12.74294865	     -4.24085455	    -12.42194250	    -47.93068526	      9.28732143	      4.66994370	      9.51513246	      0.85853621	      8.12713977	    -13.90313246	      9.13468266	     -0.90276848	     -1.61224190	      1.82680912	     -8.60172967
      1.22000000	     -2.40541570	     -3.72391330	      9.21781495	      0.58698322	      0.96604237	     -0.36343655	     12.04038854	     -4.13925406	    -12.13077503	    -48.26296085	      9.14875418	      4.83876704	      9.98220940	      0.92794063	      7.89929919	    -13.87546425	      8.86998469	     -0.78845481	     -1.39754910	      1.70995225	     -8.21239855
      1.23000000	     -2.55267485	     -3.65827460	      8.91115683	      0.58130049	      0.96577371	     -0.36223676	     11.35393610	     -4.00404323	    -11.82030297	    -48.55334712	      8.99001282	      4.99329551	     10.48007774	      0.97016455	      7.68704493	    -13.88040908	      8.62261379	     -0.64958082	     -1.17525074	      1.61424015	     -7.83235747
